<svg viewBox="0 0 1024 1024" fill="#0061e0" class="icon" version="1.1" xmlns="http://www.w3.org/2000/svg"><g id="SVGRepo_bgCarrier" stroke-width="0"></g><g id="SVGRepo_tracerCarrier" stroke-linecap="round" stroke-linejoin="round"></g><g id="SVGRepo_iconCarrier"><path d="M88.614 128.242c-4.42 0-8.076-3.576-8.076-7.998s3.5-7.998 7.904-7.998h0.172c4.404 0 7.998 3.576 7.998 7.998s-3.594 7.998-7.998 7.998zM120.604 128.242c-4.42 0-8.076-3.576-8.076-7.998s3.5-7.998 7.904-7.998h0.172c4.404 0 7.998 3.576 7.998 7.998s-3.594 7.998-7.998 7.998zM152.594 128.242c-4.42 0-8.076-3.576-8.076-7.998s3.5-7.998 7.904-7.998h0.172c4.404 0 7.998 3.576 7.998 7.998s-3.592 7.998-7.998 7.998zM856.378 336.18c-4.422 0-8.074-3.578-8.074-7.998s3.496-7.998 7.902-7.998h0.172a8 8 0 0 1 0 15.996zM1015.848 687.82H8.156a7.992 7.992 0 0 1-7.998-7.996 7.994 7.994 0 0 1 7.998-7.998h1007.692a7.992 7.992 0 0 1 7.996 7.998 7.992 7.992 0 0 1-7.996 7.996zM512 767.766c-17.636 0-31.99-14.34-31.99-31.99s14.354-31.99 31.99-31.99 31.992 14.34 31.992 31.99-14.356 31.99-31.992 31.99z m0-47.984c-8.826 0-15.996 7.184-15.996 15.994s7.17 15.994 15.996 15.994c8.824 0 15.996-7.184 15.996-15.994s-7.172-15.994-15.996-15.994zM376.136 975.732a8.01 8.01 0 0 1-7.81-9.73l31.99-143.956a8.008 8.008 0 0 1 9.544-6.078 8.014 8.014 0 0 1 6.078 9.544l-31.99 143.956a8.004 8.004 0 0 1-7.812 6.264zM647.864 975.732a8 8 0 0 1-7.808-6.264l-31.988-143.956a7.998 7.998 0 1 1 15.616-3.466l31.992 143.956a8.008 8.008 0 0 1-7.812 9.73z" fill=""></path><path d="M671.954 975.732H352.05a7.992 7.992 0 0 1-7.998-7.998 7.992 7.992 0 0 1 7.998-7.996h319.904a7.992 7.992 0 0 1 7.996 7.996 7.992 7.992 0 0 1-7.996 7.998zM967.86 640.086H56.14a7.994 7.994 0 0 1-7.998-7.998V104.25a7.994 7.994 0 0 1 7.998-7.998h911.72c4.422 0 8 3.578 8 7.998v527.838a7.994 7.994 0 0 1-8 7.998z m-903.722-15.996h895.726V112.248H64.138v511.842z" fill=""></path><path d="M967.86 800.038H56.14c-30.866 0-55.982-25.118-55.982-55.982V104.25c0-30.866 25.118-55.982 55.982-55.982h911.72c30.868 0 55.984 25.118 55.984 55.982v639.804c0 30.866-25.118 55.984-55.984 55.984zM56.14 64.262c-22.056 0-39.988 17.94-39.988 39.988v639.804c0 22.054 17.932 39.986 39.988 39.986h911.72c22.058 0 39.988-17.932 39.988-39.986V104.25c0-22.048-17.93-39.988-39.988-39.988H56.14z" fill=""></path><path d="M967.86 831.778H56.14c-31.396 0-55.982-24.586-55.982-55.982v-31.99a7.994 7.994 0 0 1 7.998-7.998 7.994 7.994 0 0 1 7.998 7.998v31.99c0 22.43 17.558 39.986 39.988 39.986h911.72c22.434 0 39.988-17.556 39.988-39.986v-31.74a7.994 7.994 0 0 1 8-7.998 7.992 7.992 0 0 1 7.996 7.998v31.74c-0.002 31.396-24.588 55.982-55.986 55.982zM967.86 144.238H56.14c-4.42 0-7.998-3.578-7.998-7.998s3.578-7.998 7.998-7.998h911.72c4.422 0 8 3.578 8 7.998s-3.578 7.998-8 7.998zM104.124 608.096a7.994 7.994 0 0 1-7.998-7.998V168.23c0-4.42 3.576-7.998 7.998-7.998s7.998 3.578 7.998 7.998v431.868a7.992 7.992 0 0 1-7.998 7.998z" fill=""></path><path d="M823.906 640.086c-4.422 0-8-3.578-8-7.998V136.24a7.994 7.994 0 0 1 8-7.998 7.994 7.994 0 0 1 7.996 7.998v495.848a7.994 7.994 0 0 1-7.996 7.998z" fill=""></path><path d="M967.86 272.2h-143.954c-4.422 0-8-3.578-8-7.998s3.578-7.998 8-7.998h143.954c4.422 0 8 3.578 8 7.998s-3.578 7.998-8 7.998zM104.124 224.212H56.14c-4.42 0-7.998-3.576-7.998-7.998s3.578-7.998 7.998-7.998h47.986c4.42 0 7.998 3.576 7.998 7.998s-3.578 7.998-8 7.998zM104.124 272.2H56.14c-4.42 0-7.998-3.578-7.998-7.998s3.578-7.998 7.998-7.998h47.986c4.42 0 7.998 3.578 7.998 7.998s-3.578 7.998-8 7.998zM104.124 320.184H56.14c-4.42 0-7.998-3.576-7.998-7.998s3.578-7.998 7.998-7.998h47.986c4.42 0 7.998 3.576 7.998 7.998s-3.578 7.998-8 7.998zM104.124 368.17H56.14a7.994 7.994 0 0 1-7.998-7.998 7.994 7.994 0 0 1 7.998-7.998h47.986a7.994 7.994 0 0 1 7.998 7.998 7.996 7.996 0 0 1-8 7.998zM104.124 416.154H56.14a7.994 7.994 0 0 1-7.998-7.998 7.994 7.994 0 0 1 7.998-7.998h47.986a7.994 7.994 0 0 1 7.998 7.998 7.994 7.994 0 0 1-8 7.998zM104.124 464.14H56.14a7.994 7.994 0 0 1-7.998-7.998 7.994 7.994 0 0 1 7.998-7.998h47.986a7.994 7.994 0 0 1 7.998 7.998 7.996 7.996 0 0 1-8 7.998zM104.124 512.124H56.14a7.994 7.994 0 0 1-7.998-7.998 7.994 7.994 0 0 1 7.998-7.998h47.986a7.994 7.994 0 0 1 7.998 7.998 7.994 7.994 0 0 1-8 7.998zM104.124 560.11H56.14a7.992 7.992 0 0 1-7.998-7.996 7.994 7.994 0 0 1 7.998-7.998h47.986a7.994 7.994 0 0 1 7.998 7.998 7.994 7.994 0 0 1-8 7.996zM104.124 608.096H56.14a7.994 7.994 0 0 1-7.998-7.998 7.992 7.992 0 0 1 7.998-7.996h47.986a7.992 7.992 0 0 1 7.998 7.996 7.994 7.994 0 0 1-8 7.998zM104.124 176.228H56.14c-4.42 0-7.998-3.578-7.998-7.998s3.578-7.998 7.998-7.998h47.986c4.42 0 7.998 3.578 7.998 7.998s-3.578 7.998-8 7.998zM935.872 192.222h-79.976c-4.422 0-7.996-3.576-7.996-7.998s3.574-7.998 7.996-7.998h79.976c4.418 0 7.996 3.576 7.996 7.998s-3.578 7.998-7.996 7.998zM935.872 224.212h-79.976c-4.422 0-7.996-3.576-7.996-7.998s3.574-7.998 7.996-7.998h79.976c4.418 0 7.996 3.576 7.996 7.998s-3.578 7.998-7.996 7.998zM935.872 336.18h-47.984c-4.422 0-8-3.578-8-7.998a7.994 7.994 0 0 1 8-7.998h47.984a7.994 7.994 0 0 1 7.996 7.998 7.994 7.994 0 0 1-7.996 7.998zM856.378 384.164c-4.422 0-8.074-3.576-8.074-7.998s3.496-7.998 7.902-7.998h0.172a8 8 0 0 1 0 15.996zM935.872 384.164h-47.984c-4.422 0-8-3.576-8-7.998s3.578-7.998 8-7.998h47.984c4.418 0 7.996 3.576 7.996 7.998s-3.578 7.998-7.996 7.998zM856.378 432.15c-4.422 0-8.074-3.578-8.074-7.998s3.496-7.998 7.902-7.998h0.172a8 8 0 0 1 0 15.996zM935.872 432.15h-47.984c-4.422 0-8-3.578-8-7.998a7.994 7.994 0 0 1 8-7.998h47.984a7.994 7.994 0 0 1 7.996 7.998 7.994 7.994 0 0 1-7.996 7.998z" fill=""></path><path d="M856.378 480.134c-4.422 0-8.074-3.576-8.074-7.998 0-4.42 3.496-7.998 7.902-7.998h0.172a7.998 7.998 0 1 1 0 15.996z" fill=""></path><path d="M935.872 480.134h-47.984c-4.422 0-8-3.576-8-7.998a7.994 7.994 0 0 1 8-7.998h47.984a7.994 7.994 0 0 1 7.996 7.998 7.992 7.992 0 0 1-7.996 7.998z" fill=""></path><path d="M856.378 528.122c-4.422 0-8.074-3.578-8.074-7.998s3.496-7.998 7.902-7.998h0.172a8 8 0 0 1 0 15.996z" fill=""></path><path d="M935.872 528.122h-47.984c-4.422 0-8-3.578-8-7.998s3.578-7.998 8-7.998h47.984c4.418 0 7.996 3.578 7.996 7.998s-3.578 7.998-7.996 7.998z" fill=""></path><path d="M856.378 576.106c-4.422 0-8.074-3.578-8.074-7.998s3.496-7.998 7.902-7.998h0.172a8 8 0 0 1 0 15.996z" fill=""></path><path d="M935.872 576.106h-47.984c-4.422 0-8-3.578-8-7.998s3.578-7.998 8-7.998h47.984c4.418 0 7.996 3.578 7.996 7.998s-3.578 7.998-7.996 7.998z" fill=""></path><path d="M471.216 384.164a8.012 8.012 0 0 1-7.952-7.208c-7.684-77.96-72.696-136.746-151.204-136.746-4.42 0-7.998-3.578-7.998-7.998s3.578-7.998 7.998-7.998c86.77 0 158.624 64.988 167.136 151.166a8.014 8.014 0 0 1-7.98 8.784zM312.452 560.11a7.992 7.992 0 0 1-7.998-7.996 7.994 7.994 0 0 1 7.998-7.998c78.506 0 143.534-58.788 151.218-136.74 0.454-4.398 4.484-7.466 8.748-7.17a8.016 8.016 0 0 1 7.186 8.748c-8.514 86.17-80.382 151.156-167.152 151.156zM567.984 448.144a7.968 7.968 0 0 1-4.796-1.602l-63.98-47.984a7.994 7.994 0 0 1 0-12.792l63.98-47.986a7.968 7.968 0 0 1 6.36-1.444l79.972 15.994a7.996 7.996 0 0 1 6.438 7.842v63.98a7.998 7.998 0 0 1-6.438 7.842l-79.972 15.994a8.132 8.132 0 0 1-1.564 0.156z m-50.656-55.982l52.594 39.442 70.04-14.004v-50.876l-70.04-14.004-52.594 39.442z" fill=""></path><path d="M647.958 448.144a7.992 7.992 0 0 1-7.996-7.998v-95.97a7.994 7.994 0 0 1 7.996-7.998c4.422 0 8 3.576 8 7.998v95.97a7.994 7.994 0 0 1-8 7.998zM583.976 400.16h-79.974a7.994 7.994 0 0 1-7.998-7.998 7.994 7.994 0 0 1 7.998-7.998h79.974c4.422 0 8 3.578 8 7.998a7.994 7.994 0 0 1-8 7.998zM472.012 384.054a7.994 7.994 0 0 1-7.998-7.998V264.2a7.994 7.994 0 0 1 7.998-7.998 7.994 7.994 0 0 1 7.998 7.998v111.856a7.994 7.994 0 0 1-7.998 7.998z" fill=""></path><path d="M472.012 272.2c-13.23 0-23.994-10.762-23.994-23.994s10.762-23.994 23.994-23.994 23.992 10.762 23.992 23.994-10.76 23.994-23.992 23.994z m0-31.992c-4.406 0-7.998 3.584-7.998 7.998s3.592 7.998 7.998 7.998c4.404 0 7.998-3.584 7.998-7.998s-3.594-7.998-7.998-7.998zM472.012 528.074a7.994 7.994 0 0 1-7.998-7.998v-111.858a7.994 7.994 0 0 1 7.998-7.998 7.994 7.994 0 0 1 7.998 7.998v111.858a7.994 7.994 0 0 1-7.998 7.998z" fill=""></path><path d="M472.012 560.062c-13.23 0-23.994-10.762-23.994-23.992s10.762-23.992 23.994-23.992 23.992 10.762 23.992 23.992-10.76 23.992-23.992 23.992z m0-31.988a8 8 0 0 0-7.998 7.996 8.002 8.002 0 0 0 7.998 7.998 8.004 8.004 0 0 0 7.998-7.998 8.002 8.002 0 0 0-7.998-7.996zM679.95 432.15h-31.992a7.994 7.994 0 0 1-7.996-7.998v-63.98a7.994 7.994 0 0 1 7.996-7.998h31.992a7.992 7.992 0 0 1 7.996 7.998v63.98a7.992 7.992 0 0 1-7.996 7.998z m-23.992-15.996h15.996v-47.984h-15.996v47.984zM312.062 256.204h-31.99a7.994 7.994 0 0 1-7.998-7.998v-31.99a7.994 7.994 0 0 1 7.998-7.998h31.99a7.994 7.994 0 0 1 7.998 7.998v31.99a7.994 7.994 0 0 1-7.998 7.998z m-23.992-15.996h15.994v-15.996h-15.994v15.996zM312.062 576.106h-31.99a7.994 7.994 0 0 1-7.998-7.998v-31.99a7.992 7.992 0 0 1 7.998-7.996h31.99a7.992 7.992 0 0 1 7.998 7.996v31.99a7.994 7.994 0 0 1-7.998 7.998z m-23.992-15.996h15.994v-15.994h-15.994v15.994zM488.006 416.154h-31.99a7.994 7.994 0 0 1-7.998-7.998v-31.99a7.994 7.994 0 0 1 7.998-7.998h31.99a7.992 7.992 0 0 1 7.998 7.998v31.99a7.992 7.992 0 0 1-7.998 7.998z m-23.992-15.994h15.996v-15.996h-15.996v15.996z" fill=""></path></g></svg>