<svg version="1.1" id="Uploaded to svgrepo.com" xmlns="http://www.w3.org/2000/svg" xmlns:xlink="http://www.w3.org/1999/xlink" viewBox="0 0 32 32" xml:space="preserve" fill="#000000"><g id="SVGRepo_bgCarrier" stroke-width="0"></g><g id="SVGRepo_tracerCarrier" stroke-linecap="round" stroke-linejoin="round"></g><g id="SVGRepo_iconCarrier"> <style type="text/css"> .linesandangles_een{fill:#707070;} </style> <path class="linesandangles_een" d="M28,8V7.382l-0.553-0.276C27.356,7.061,25.187,6,21,6c-2.728,0-4.224,0.454-5,0.831 C15.224,6.454,13.728,6,11,6C6.812,6,4.644,7.061,4.553,7.105L4,7.382V9H3v16h10v1h6v-1h10V8H28z M26,8.685v12.914 C24.925,21.308,23.255,21,21,21c-1.841,0-3.122,0.207-4,0.457V8.569C17.516,8.349,18.696,8,21,8C23.522,8,25.197,8.421,26,8.685z M6,8.686C6.806,8.42,8.479,8,11,8c2.325,0,3.506,0.355,4,0.562v12.895C14.122,21.207,12.841,21,11,21c-2.255,0-3.925,0.308-5,0.599 V8.686z"></path> </g></svg>